<?xml version="1.0" encoding="UTF-8" standalone="no"?>
<!DOCTYPE svg PUBLIC "-//W3C//DTD SVG 1.1//EN"
 "http://www.w3.org/Graphics/SVG/1.1/DTD/svg11.dtd">
<!-- Generated by graphviz version 2.40.1 (20161225.0304)
 -->
<!-- Title: Tree Pages: 1 -->
<svg width="1027pt" height="433pt"
 viewBox="0.00 0.00 1027.00 433.00" xmlns="http://www.w3.org/2000/svg" xmlns:xlink="http://www.w3.org/1999/xlink">
<g id="graph0" class="graph" transform="scale(1 1) rotate(0) translate(4 429)">
<title>Tree</title>
<polygon fill="#ffffff" stroke="transparent" points="-4,4 -4,-429 1023,-429 1023,4 -4,4"/>
<!-- 0 -->
<g id="node1" class="node">
<title>0</title>
<polygon fill="#e58139" fill-opacity="0.752941" stroke="#000000" points="551.5,-425 423.5,-425 423.5,-342 551.5,-342 551.5,-425"/>
<text text-anchor="middle" x="487.5" y="-409.8" font-family="Times,serif" font-size="14.00" fill="#000000">alcohol &lt;= 10.95</text>
<text text-anchor="middle" x="487.5" y="-394.8" font-family="Times,serif" font-size="14.00" fill="#000000">gini = 0.317</text>
<text text-anchor="middle" x="487.5" y="-379.8" font-family="Times,serif" font-size="14.00" fill="#000000">samples = 5197</text>
<text text-anchor="middle" x="487.5" y="-364.8" font-family="Times,serif" font-size="14.00" fill="#000000">value = [4172, 1025]</text>
<text text-anchor="middle" x="487.5" y="-349.8" font-family="Times,serif" font-size="14.00" fill="#000000">class = good</text>
</g>
<!-- 1 -->
<g id="node2" class="node">
<title>1</title>
<polygon fill="#e58139" fill-opacity="0.894118" stroke="#000000" points="440,-306 291,-306 291,-223 440,-223 440,-306"/>
<text text-anchor="middle" x="365.5" y="-290.8" font-family="Times,serif" font-size="14.00" fill="#000000">volatile acidity &lt;= 0.213</text>
<text text-anchor="middle" x="365.5" y="-275.8" font-family="Times,serif" font-size="14.00" fill="#000000">gini = 0.172</text>
<text text-anchor="middle" x="365.5" y="-260.8" font-family="Times,serif" font-size="14.00" fill="#000000">samples = 3458</text>
<text text-anchor="middle" x="365.5" y="-245.8" font-family="Times,serif" font-size="14.00" fill="#000000">value = [3130, 328]</text>
<text text-anchor="middle" x="365.5" y="-230.8" font-family="Times,serif" font-size="14.00" fill="#000000">class = good</text>
</g>
<!-- 0&#45;&gt;1 -->
<g id="edge1" class="edge">
<title>0&#45;&gt;1</title>
<path fill="none" stroke="#000000" d="M444.8303,-341.8796C435.4123,-332.6931 425.3516,-322.8798 415.6672,-313.4336"/>
<polygon fill="#000000" stroke="#000000" points="417.9543,-310.7751 408.3518,-306.2981 413.0665,-315.7861 417.9543,-310.7751"/>
<text text-anchor="middle" x="408.663" y="-327.5961" font-family="Times,serif" font-size="14.00" fill="#000000">True</text>
</g>
<!-- 8 -->
<g id="node9" class="node">
<title>8</title>
<polygon fill="#e58139" fill-opacity="0.329412" stroke="#000000" points="677.5,-306 555.5,-306 555.5,-223 677.5,-223 677.5,-306"/>
<text text-anchor="middle" x="616.5" y="-290.8" font-family="Times,serif" font-size="14.00" fill="#000000">alcohol &lt;= 11.875</text>
<text text-anchor="middle" x="616.5" y="-275.8" font-family="Times,serif" font-size="14.00" fill="#000000">gini = 0.48</text>
<text text-anchor="middle" x="616.5" y="-260.8" font-family="Times,serif" font-size="14.00" fill="#000000">samples = 1739</text>
<text text-anchor="middle" x="616.5" y="-245.8" font-family="Times,serif" font-size="14.00" fill="#000000">value = [1042, 697]</text>
<text text-anchor="middle" x="616.5" y="-230.8" font-family="Times,serif" font-size="14.00" fill="#000000">class = good</text>
</g>
<!-- 0&#45;&gt;8 -->
<g id="edge8" class="edge">
<title>0&#45;&gt;8</title>
<path fill="none" stroke="#000000" d="M532.6179,-341.8796C542.674,-332.6031 553.423,-322.6874 563.7554,-313.1559"/>
<polygon fill="#000000" stroke="#000000" points="566.2124,-315.6511 571.1895,-306.2981 561.4661,-310.506 566.2124,-315.6511"/>
<text text-anchor="middle" x="570.1822" y="-327.5778" font-family="Times,serif" font-size="14.00" fill="#000000">False</text>
</g>
<!-- 2 -->
<g id="node3" class="node">
<title>2</title>
<polygon fill="#e58139" fill-opacity="0.686275" stroke="#000000" points="241,-187 126,-187 126,-104 241,-104 241,-187"/>
<text text-anchor="middle" x="183.5" y="-171.8" font-family="Times,serif" font-size="14.00" fill="#000000">density &lt;= 0.998</text>
<text text-anchor="middle" x="183.5" y="-156.8" font-family="Times,serif" font-size="14.00" fill="#000000">gini = 0.364</text>
<text text-anchor="middle" x="183.5" y="-141.8" font-family="Times,serif" font-size="14.00" fill="#000000">samples = 724</text>
<text text-anchor="middle" x="183.5" y="-126.8" font-family="Times,serif" font-size="14.00" fill="#000000">value = [551, 173]</text>
<text text-anchor="middle" x="183.5" y="-111.8" font-family="Times,serif" font-size="14.00" fill="#000000">class = good</text>
</g>
<!-- 1&#45;&gt;2 -->
<g id="edge2" class="edge">
<title>1&#45;&gt;2</title>
<path fill="none" stroke="#000000" d="M301.8452,-222.8796C284.9981,-211.8641 266.7724,-199.9473 249.7892,-188.8429"/>
<polygon fill="#000000" stroke="#000000" points="251.3203,-185.6623 241.0352,-183.1192 247.4895,-191.5211 251.3203,-185.6623"/>
</g>
<!-- 5 -->
<g id="node6" class="node">
<title>5</title>
<polygon fill="#e58139" fill-opacity="0.941176" stroke="#000000" points="426.5,-187 304.5,-187 304.5,-104 426.5,-104 426.5,-187"/>
<text text-anchor="middle" x="365.5" y="-171.8" font-family="Times,serif" font-size="14.00" fill="#000000">alcohol &lt;= 10.35</text>
<text text-anchor="middle" x="365.5" y="-156.8" font-family="Times,serif" font-size="14.00" fill="#000000">gini = 0.107</text>
<text text-anchor="middle" x="365.5" y="-141.8" font-family="Times,serif" font-size="14.00" fill="#000000">samples = 2734</text>
<text text-anchor="middle" x="365.5" y="-126.8" font-family="Times,serif" font-size="14.00" fill="#000000">value = [2579, 155]</text>
<text text-anchor="middle" x="365.5" y="-111.8" font-family="Times,serif" font-size="14.00" fill="#000000">class = good</text>
</g>
<!-- 1&#45;&gt;5 -->
<g id="edge5" class="edge">
<title>1&#45;&gt;5</title>
<path fill="none" stroke="#000000" d="M365.5,-222.8796C365.5,-214.6838 365.5,-205.9891 365.5,-197.5013"/>
<polygon fill="#000000" stroke="#000000" points="369.0001,-197.298 365.5,-187.2981 362.0001,-197.2981 369.0001,-197.298"/>
</g>
<!-- 3 -->
<g id="node4" class="node">
<title>3</title>
<polygon fill="#e58139" fill-opacity="0.756863" stroke="#000000" points="115,-68 0,-68 0,0 115,0 115,-68"/>
<text text-anchor="middle" x="57.5" y="-52.8" font-family="Times,serif" font-size="14.00" fill="#000000">gini = 0.315</text>
<text text-anchor="middle" x="57.5" y="-37.8" font-family="Times,serif" font-size="14.00" fill="#000000">samples = 602</text>
<text text-anchor="middle" x="57.5" y="-22.8" font-family="Times,serif" font-size="14.00" fill="#000000">value = [484, 118]</text>
<text text-anchor="middle" x="57.5" y="-7.8" font-family="Times,serif" font-size="14.00" fill="#000000">class = good</text>
</g>
<!-- 2&#45;&gt;3 -->
<g id="edge3" class="edge">
<title>2&#45;&gt;3</title>
<path fill="none" stroke="#000000" d="M136.5823,-103.9815C125.8848,-94.5151 114.5244,-84.462 103.8508,-75.0168"/>
<polygon fill="#000000" stroke="#000000" points="106.0278,-72.2696 96.2195,-68.2637 101.3889,-77.5118 106.0278,-72.2696"/>
</g>
<!-- 4 -->
<g id="node5" class="node">
<title>4</title>
<polygon fill="#e58139" fill-opacity="0.180392" stroke="#000000" points="234,-68 133,-68 133,0 234,0 234,-68"/>
<text text-anchor="middle" x="183.5" y="-52.8" font-family="Times,serif" font-size="14.00" fill="#000000">gini = 0.495</text>
<text text-anchor="middle" x="183.5" y="-37.8" font-family="Times,serif" font-size="14.00" fill="#000000">samples = 122</text>
<text text-anchor="middle" x="183.5" y="-22.8" font-family="Times,serif" font-size="14.00" fill="#000000">value = [67, 55]</text>
<text text-anchor="middle" x="183.5" y="-7.8" font-family="Times,serif" font-size="14.00" fill="#000000">class = good</text>
</g>
<!-- 2&#45;&gt;4 -->
<g id="edge4" class="edge">
<title>2&#45;&gt;4</title>
<path fill="none" stroke="#000000" d="M183.5,-103.9815C183.5,-95.618 183.5,-86.7965 183.5,-78.3409"/>
<polygon fill="#000000" stroke="#000000" points="187.0001,-78.2636 183.5,-68.2637 180.0001,-78.2637 187.0001,-78.2636"/>
</g>
<!-- 6 -->
<g id="node7" class="node">
<title>6</title>
<polygon fill="#e58139" fill-opacity="0.964706" stroke="#000000" points="367,-68 252,-68 252,0 367,0 367,-68"/>
<text text-anchor="middle" x="309.5" y="-52.8" font-family="Times,serif" font-size="14.00" fill="#000000">gini = 0.066</text>
<text text-anchor="middle" x="309.5" y="-37.8" font-family="Times,serif" font-size="14.00" fill="#000000">samples = 2149</text>
<text text-anchor="middle" x="309.5" y="-22.8" font-family="Times,serif" font-size="14.00" fill="#000000">value = [2076, 73]</text>
<text text-anchor="middle" x="309.5" y="-7.8" font-family="Times,serif" font-size="14.00" fill="#000000">class = good</text>
</g>
<!-- 5&#45;&gt;6 -->
<g id="edge6" class="edge">
<title>5&#45;&gt;6</title>
<path fill="none" stroke="#000000" d="M344.6477,-103.9815C340.2625,-95.2504 335.6267,-86.0202 331.211,-77.2281"/>
<polygon fill="#000000" stroke="#000000" points="334.3246,-75.6291 326.7087,-68.2637 328.0692,-78.7708 334.3246,-75.6291"/>
</g>
<!-- 7 -->
<g id="node8" class="node">
<title>7</title>
<polygon fill="#e58139" fill-opacity="0.835294" stroke="#000000" points="493.5,-68 385.5,-68 385.5,0 493.5,0 493.5,-68"/>
<text text-anchor="middle" x="439.5" y="-52.8" font-family="Times,serif" font-size="14.00" fill="#000000">gini = 0.241</text>
<text text-anchor="middle" x="439.5" y="-37.8" font-family="Times,serif" font-size="14.00" fill="#000000">samples = 585</text>
<text text-anchor="middle" x="439.5" y="-22.8" font-family="Times,serif" font-size="14.00" fill="#000000">value = [503, 82]</text>
<text text-anchor="middle" x="439.5" y="-7.8" font-family="Times,serif" font-size="14.00" fill="#000000">class = good</text>
</g>
<!-- 5&#45;&gt;7 -->
<g id="edge7" class="edge">
<title>5&#45;&gt;7</title>
<path fill="none" stroke="#000000" d="M393.0549,-103.9815C398.9715,-95.0666 405.2335,-85.6313 411.1787,-76.6734"/>
<polygon fill="#000000" stroke="#000000" points="414.1464,-78.5311 416.76,-68.2637 408.314,-74.6602 414.1464,-78.5311"/>
</g>
<!-- 9 -->
<g id="node10" class="node">
<title>9</title>
<polygon fill="#e58139" fill-opacity="0.556863" stroke="#000000" points="678,-187 555,-187 555,-104 678,-104 678,-187"/>
<text text-anchor="middle" x="616.5" y="-171.8" font-family="Times,serif" font-size="14.00" fill="#000000">citric acid &lt;= 0.275</text>
<text text-anchor="middle" x="616.5" y="-156.8" font-family="Times,serif" font-size="14.00" fill="#000000">gini = 0.426</text>
<text text-anchor="middle" x="616.5" y="-141.8" font-family="Times,serif" font-size="14.00" fill="#000000">samples = 905</text>
<text text-anchor="middle" x="616.5" y="-126.8" font-family="Times,serif" font-size="14.00" fill="#000000">value = [627, 278]</text>
<text text-anchor="middle" x="616.5" y="-111.8" font-family="Times,serif" font-size="14.00" fill="#000000">class = good</text>
</g>
<!-- 8&#45;&gt;9 -->
<g id="edge9" class="edge">
<title>8&#45;&gt;9</title>
<path fill="none" stroke="#000000" d="M616.5,-222.8796C616.5,-214.6838 616.5,-205.9891 616.5,-197.5013"/>
<polygon fill="#000000" stroke="#000000" points="620.0001,-197.298 616.5,-187.2981 613.0001,-197.2981 620.0001,-197.298"/>
</g>
<!-- 12 -->
<g id="node13" class="node">
<title>12</title>
<polygon fill="#399de5" fill-opacity="0.007843" stroke="#000000" points="909.5,-187 747.5,-187 747.5,-104 909.5,-104 909.5,-187"/>
<text text-anchor="middle" x="828.5" y="-171.8" font-family="Times,serif" font-size="14.00" fill="#000000">free sulfur dioxide &lt;= 21.5</text>
<text text-anchor="middle" x="828.5" y="-156.8" font-family="Times,serif" font-size="14.00" fill="#000000">gini = 0.5</text>
<text text-anchor="middle" x="828.5" y="-141.8" font-family="Times,serif" font-size="14.00" fill="#000000">samples = 834</text>
<text text-anchor="middle" x="828.5" y="-126.8" font-family="Times,serif" font-size="14.00" fill="#000000">value = [415, 419]</text>
<text text-anchor="middle" x="828.5" y="-111.8" font-family="Times,serif" font-size="14.00" fill="#000000">class = bad</text>
</g>
<!-- 8&#45;&gt;12 -->
<g id="edge12" class="edge">
<title>8&#45;&gt;12</title>
<path fill="none" stroke="#000000" d="M677.5348,-230.2399C698.7003,-218.3592 722.802,-204.8305 745.4378,-192.1245"/>
<polygon fill="#000000" stroke="#000000" points="747.3574,-195.0608 754.3643,-187.1139 743.931,-188.9567 747.3574,-195.0608"/>
</g>
<!-- 10 -->
<g id="node11" class="node">
<title>10</title>
<polygon fill="#e58139" fill-opacity="0.800000" stroke="#000000" points="619.5,-68 511.5,-68 511.5,0 619.5,0 619.5,-68"/>
<text text-anchor="middle" x="565.5" y="-52.8" font-family="Times,serif" font-size="14.00" fill="#000000">gini = 0.278</text>
<text text-anchor="middle" x="565.5" y="-37.8" font-family="Times,serif" font-size="14.00" fill="#000000">samples = 228</text>
<text text-anchor="middle" x="565.5" y="-22.8" font-family="Times,serif" font-size="14.00" fill="#000000">value = [190, 38]</text>
<text text-anchor="middle" x="565.5" y="-7.8" font-family="Times,serif" font-size="14.00" fill="#000000">class = good</text>
</g>
<!-- 9&#45;&gt;10 -->
<g id="edge10" class="edge">
<title>9&#45;&gt;10</title>
<path fill="none" stroke="#000000" d="M597.5095,-103.9815C593.5579,-95.3423 589.3828,-86.2144 585.3995,-77.5059"/>
<polygon fill="#000000" stroke="#000000" points="588.5146,-75.9017 581.1722,-68.2637 582.1489,-78.8134 588.5146,-75.9017"/>
</g>
<!-- 11 -->
<g id="node12" class="node">
<title>11</title>
<polygon fill="#e58139" fill-opacity="0.450980" stroke="#000000" points="753,-68 638,-68 638,0 753,0 753,-68"/>
<text text-anchor="middle" x="695.5" y="-52.8" font-family="Times,serif" font-size="14.00" fill="#000000">gini = 0.458</text>
<text text-anchor="middle" x="695.5" y="-37.8" font-family="Times,serif" font-size="14.00" fill="#000000">samples = 677</text>
<text text-anchor="middle" x="695.5" y="-22.8" font-family="Times,serif" font-size="14.00" fill="#000000">value = [437, 240]</text>
<text text-anchor="middle" x="695.5" y="-7.8" font-family="Times,serif" font-size="14.00" fill="#000000">class = good</text>
</g>
<!-- 9&#45;&gt;11 -->
<g id="edge11" class="edge">
<title>9&#45;&gt;11</title>
<path fill="none" stroke="#000000" d="M645.9167,-103.9815C652.2331,-95.0666 658.9182,-85.6313 665.2651,-76.6734"/>
<polygon fill="#000000" stroke="#000000" points="668.2981,-78.4466 671.2235,-68.2637 662.5864,-74.3998 668.2981,-78.4466"/>
</g>
<!-- 13 -->
<g id="node14" class="node">
<title>13</title>
<polygon fill="#e58139" fill-opacity="0.392157" stroke="#000000" points="886,-68 771,-68 771,0 886,0 886,-68"/>
<text text-anchor="middle" x="828.5" y="-52.8" font-family="Times,serif" font-size="14.00" fill="#000000">gini = 0.47</text>
<text text-anchor="middle" x="828.5" y="-37.8" font-family="Times,serif" font-size="14.00" fill="#000000">samples = 286</text>
<text text-anchor="middle" x="828.5" y="-22.8" font-family="Times,serif" font-size="14.00" fill="#000000">value = [178, 108]</text>
<text text-anchor="middle" x="828.5" y="-7.8" font-family="Times,serif" font-size="14.00" fill="#000000">class = good</text>
</g>
<!-- 12&#45;&gt;13 -->
<g id="edge13" class="edge">
<title>12&#45;&gt;13</title>
<path fill="none" stroke="#000000" d="M828.5,-103.9815C828.5,-95.618 828.5,-86.7965 828.5,-78.3409"/>
<polygon fill="#000000" stroke="#000000" points="832.0001,-78.2636 828.5,-68.2637 825.0001,-78.2637 832.0001,-78.2636"/>
</g>
<!-- 14 -->
<g id="node15" class="node">
<title>14</title>
<polygon fill="#399de5" fill-opacity="0.239216" stroke="#000000" points="1019,-68 904,-68 904,0 1019,0 1019,-68"/>
<text text-anchor="middle" x="961.5" y="-52.8" font-family="Times,serif" font-size="14.00" fill="#000000">gini = 0.491</text>
<text text-anchor="middle" x="961.5" y="-37.8" font-family="Times,serif" font-size="14.00" fill="#000000">samples = 548</text>
<text text-anchor="middle" x="961.5" y="-22.8" font-family="Times,serif" font-size="14.00" fill="#000000">value = [237, 311]</text>
<text text-anchor="middle" x="961.5" y="-7.8" font-family="Times,serif" font-size="14.00" fill="#000000">class = bad</text>
</g>
<!-- 12&#45;&gt;14 -->
<g id="edge14" class="edge">
<title>12&#45;&gt;14</title>
<path fill="none" stroke="#000000" d="M878.0243,-103.9815C889.4257,-94.4232 901.5405,-84.2668 912.9021,-74.7419"/>
<polygon fill="#000000" stroke="#000000" points="915.2147,-77.3704 920.6294,-68.2637 910.7175,-72.006 915.2147,-77.3704"/>
</g>
</g>
</svg>
